<svg width="500" height="806" viewBox="0 0 500 806" fill="none" xmlns="http://www.w3.org/2000/svg">
<path d="M500 402C500 540.071 388.071 652 250 652C111.929 652 0 540.071 0 402C0 263.929 111.929 152 250 152C388.071 152 500 263.929 500 402ZM137.842 402C137.842 463.943 188.057 514.158 250 514.158C311.943 514.158 362.158 463.943 362.158 402C362.158 340.057 311.943 289.842 250 289.842C188.057 289.842 137.842 340.057 137.842 402Z" fill="#30DEA2"/>
<circle cx="424" cy="76" r="76" fill="#30DEA2"/>
<rect x="45" y="689" width="410" height="117" fill="#30DEA2"/>
</svg>
